<svg width="20" height="19" viewBox="0 0 20 19" fill="none" xmlns="http://www.w3.org/2000/svg">
<path d="M14.58 11.0282C14.3294 10.9115 13.1087 10.3634 12.8806 10.2852C12.6525 10.2105 12.4869 10.1714 12.3206 10.402C12.1581 10.6268 11.6794 11.1415 11.5331 11.2916C11.3869 11.4417 11.2431 11.4532 10.9962 11.3514C10.7456 11.2347 9.945 10.9949 8.99437 10.2105C8.25187 9.60261 7.7575 8.85386 7.61063 8.62326C7.46438 8.39553 7.59437 8.26671 7.71812 8.15285C7.83187 8.04818 7.96875 7.88946 8.09563 7.75144C8.21625 7.61343 8.255 7.52084 8.34312 7.37132C8.42437 7.20972 8.3825 7.08378 8.32062 6.96992C8.25875 6.85605 7.76062 5.72718 7.5525 5.27747C7.35375 4.83121 7.14562 4.88814 6.9925 4.88814C6.84937 4.87607 6.68313 4.87607 6.5175 4.87607C6.35188 4.87607 6.08125 4.933 5.85312 5.15153C5.625 5.38213 4.98062 5.93305 4.98062 7.04755C4.98062 8.16492 5.8725 9.24606 5.99625 9.40766C6.12312 9.55718 7.75063 11.8575 10.2475 12.846C10.8431 13.0766 11.3056 13.2147 11.6669 13.3285C12.2625 13.5022 12.8063 13.478 13.2356 13.4211C13.7106 13.3492 14.7069 12.8667 14.9156 12.3279C15.1275 11.7856 15.1275 11.3365 15.0656 11.2347C15.0037 11.13 14.8412 11.0731 14.5906 10.9713L14.58 11.0282ZM10.0519 16.6772H10.0388C8.56063 16.6772 7.09938 16.3086 5.82313 15.6196L5.52375 15.4552L2.39875 16.2039L3.23875 13.4062L3.03688 13.1186C2.21313 11.9115 1.77375 10.5187 1.77375 9.08734C1.77375 4.9123 5.48813 1.5067 10.0581 1.5067C12.2719 1.5067 14.3488 2.3003 15.9113 3.73799C17.4738 5.1636 18.3362 7.07458 18.3362 9.09942C18.33 13.2716 14.6187 16.6772 10.055 16.6772H10.0519ZM17.0994 2.64477C15.1981 0.955201 12.6981 0 10.0388 0C4.55375 0 0.0875 4.09166 0.084375 9.12012C0.084375 10.7257 0.54 12.2922 1.4125 13.6787L0 18.4024L5.28 17.1355C6.735 17.8572 8.3725 18.2437 10.0394 18.2466H10.0425C15.5306 18.2466 19.9969 14.1549 20 9.123C20 6.68813 18.9681 4.39645 17.0869 2.6741L17.0994 2.64477Z" fill="#AB9178"/>
</svg>
